<svg xmlns="http://www.w3.org/2000/svg" width="744" height="262">
  <style>text { font-family: -apple-system, BlinkMacSystemFont, 'Segoe UI', Helvetica, Arial, sans-serif; }</style>
  <rect width="744" height="262" rx="10" fill="#ffffff" stroke="#e5e7eb" stroke-width="1"/>
  <text x="372" y="20" text-anchor="middle" font-size="13" font-weight="700" fill="#111827">Asana · Tasks Closed per Day</text>
  <text x="372" y="36" text-anchor="middle" font-size="11" fill="#9ca3af">2026-05-30  →  2026-06-28  ·  100 tasks closed</text>
  <line x1="38" y1="204" x2="724" y2="204" stroke="#e5e7eb" stroke-width="1"/><text x="32" y="208" text-anchor="end" font-size="11" fill="#9ca3af">0</text>
  <line x1="38" y1="161" x2="724" y2="161" stroke="#e5e7eb" stroke-width="1"/><text x="32" y="165" text-anchor="end" font-size="11" fill="#9ca3af">7</text>
  <line x1="38" y1="124" x2="724" y2="124" stroke="#e5e7eb" stroke-width="1"/><text x="32" y="128" text-anchor="end" font-size="11" fill="#9ca3af">13</text>
  <line x1="38" y1="81" x2="724" y2="81" stroke="#e5e7eb" stroke-width="1"/><text x="32" y="85" text-anchor="end" font-size="11" fill="#9ca3af">20</text>
  <line x1="38" y1="44" x2="724" y2="44" stroke="#e5e7eb" stroke-width="1"/><text x="32" y="48" text-anchor="end" font-size="11" fill="#9ca3af">26</text>
  <rect x="38" y="202" width="19" height="2" rx="3" fill="#6366f1" opacity="0.15"/><text x="47.5" y="218" text-anchor="end" font-size="10" fill="#9ca3af" transform="rotate(-40 47.5 218)">May 30</text>
  <rect x="61" y="202" width="19" height="2" rx="3" fill="#6366f1" opacity="0.15"/>
  <rect x="84" y="202" width="19" height="2" rx="3" fill="#6366f1" opacity="0.15"/>
  <rect x="107" y="202" width="19" height="2" rx="3" fill="#6366f1" opacity="0.15"/>
  <rect x="130" y="202" width="19" height="2" rx="3" fill="#6366f1" opacity="0.15"/>
  <rect x="153" y="202" width="19" height="2" rx="3" fill="#6366f1" opacity="0.15"/><text x="162.5" y="218" text-anchor="end" font-size="10" fill="#9ca3af" transform="rotate(-40 162.5 218)">Jun 4</text>
  <rect x="176" y="202" width="19" height="2" rx="3" fill="#6366f1" opacity="0.15"/>
  <rect x="199" y="202" width="19" height="2" rx="3" fill="#6366f1" opacity="0.15"/>
  <rect x="222" y="202" width="19" height="2" rx="3" fill="#6366f1" opacity="0.15"/>
  <rect x="245" y="202" width="19" height="2" rx="3" fill="#6366f1" opacity="0.15"/>
  <rect x="268" y="192" width="19" height="12" rx="3" fill="#6366f1" opacity="1"/><text x="277.5" y="218" text-anchor="end" font-size="10" fill="#9ca3af" transform="rotate(-40 277.5 218)">Jun 9</text>
  <rect x="291" y="44" width="19" height="160" rx="3" fill="#6366f1" opacity="1"/><text x="300.5" y="39" text-anchor="middle" font-size="11" fill="#4f46e5" font-weight="600">26</text>
  <rect x="314" y="155" width="19" height="49" rx="3" fill="#6366f1" opacity="1"/><text x="323.5" y="150" text-anchor="middle" font-size="11" fill="#4f46e5" font-weight="600">8</text>
  <rect x="337" y="136" width="19" height="68" rx="3" fill="#6366f1" opacity="1"/><text x="346.5" y="131" text-anchor="middle" font-size="11" fill="#4f46e5" font-weight="600">11</text>
  <rect x="360" y="202" width="19" height="2" rx="3" fill="#6366f1" opacity="0.15"/>
  <rect x="383" y="202" width="19" height="2" rx="3" fill="#6366f1" opacity="0.15"/><text x="392.5" y="218" text-anchor="end" font-size="10" fill="#9ca3af" transform="rotate(-40 392.5 218)">Jun 14</text>
  <rect x="406" y="192" width="19" height="12" rx="3" fill="#6366f1" opacity="1"/>
  <rect x="429" y="167" width="19" height="37" rx="3" fill="#6366f1" opacity="1"/><text x="438.5" y="162" text-anchor="middle" font-size="11" fill="#4f46e5" font-weight="600">6</text>
  <rect x="452" y="149" width="19" height="55" rx="3" fill="#6366f1" opacity="1"/><text x="461.5" y="144" text-anchor="middle" font-size="11" fill="#4f46e5" font-weight="600">9</text>
  <rect x="475" y="173" width="19" height="31" rx="3" fill="#6366f1" opacity="1"/><text x="484.5" y="168" text-anchor="middle" font-size="11" fill="#4f46e5" font-weight="600">5</text>
  <rect x="498" y="142" width="19" height="62" rx="3" fill="#6366f1" opacity="1"/><text x="507.5" y="137" text-anchor="middle" font-size="11" fill="#4f46e5" font-weight="600">10</text><text x="507.5" y="218" text-anchor="end" font-size="10" fill="#9ca3af" transform="rotate(-40 507.5 218)">Jun 19</text>
  <rect x="521" y="202" width="19" height="2" rx="3" fill="#6366f1" opacity="0.15"/>
  <rect x="544" y="198" width="19" height="6" rx="3" fill="#6366f1" opacity="1"/>
  <rect x="567" y="202" width="19" height="2" rx="3" fill="#6366f1" opacity="0.15"/>
  <rect x="590" y="161" width="19" height="43" rx="3" fill="#6366f1" opacity="1"/><text x="599.5" y="156" text-anchor="middle" font-size="11" fill="#4f46e5" font-weight="600">7</text>
  <rect x="613" y="202" width="19" height="2" rx="3" fill="#6366f1" opacity="0.15"/><text x="622.5" y="218" text-anchor="end" font-size="10" fill="#9ca3af" transform="rotate(-40 622.5 218)">Jun 24</text>
  <rect x="636" y="149" width="19" height="55" rx="3" fill="#6366f1" opacity="1"/><text x="645.5" y="144" text-anchor="middle" font-size="11" fill="#4f46e5" font-weight="600">9</text>
  <rect x="659" y="186" width="19" height="18" rx="3" fill="#6366f1" opacity="1"/>
  <rect x="682" y="198" width="19" height="6" rx="3" fill="#6366f1" opacity="1"/>
  <rect x="705" y="202" width="19" height="2" rx="3" fill="#6366f1" opacity="0.15"/><text x="714.5" y="218" text-anchor="end" font-size="10" fill="#9ca3af" transform="rotate(-40 714.5 218)">Jun 28</text>
</svg>