<svg xmlns="http://www.w3.org/2000/svg" width="744" height="262">
  <style>text { font-family: -apple-system, BlinkMacSystemFont, 'Segoe UI', Helvetica, Arial, sans-serif; }</style>
  <rect width="744" height="262" rx="10" fill="#ffffff" stroke="#e5e7eb" stroke-width="1"/>
  <text x="372" y="20" text-anchor="middle" font-size="13" font-weight="700" fill="#111827">Asana · Tasks Closed per Day</text>
  <text x="372" y="36" text-anchor="middle" font-size="11" fill="#9ca3af">2026-06-06  →  2026-07-05  ·  100 tasks closed</text>
  <line x1="38" y1="204" x2="724" y2="204" stroke="#e5e7eb" stroke-width="1"/><text x="32" y="208" text-anchor="end" font-size="11" fill="#9ca3af">0</text>
  <line x1="38" y1="162" x2="724" y2="162" stroke="#e5e7eb" stroke-width="1"/><text x="32" y="166" text-anchor="end" font-size="11" fill="#9ca3af">5</text>
  <line x1="38" y1="120" x2="724" y2="120" stroke="#e5e7eb" stroke-width="1"/><text x="32" y="124" text-anchor="end" font-size="11" fill="#9ca3af">10</text>
  <line x1="38" y1="86" x2="724" y2="86" stroke="#e5e7eb" stroke-width="1"/><text x="32" y="90" text-anchor="end" font-size="11" fill="#9ca3af">14</text>
  <line x1="38" y1="44" x2="724" y2="44" stroke="#e5e7eb" stroke-width="1"/><text x="32" y="48" text-anchor="end" font-size="11" fill="#9ca3af">19</text>
  <rect x="38" y="202" width="19" height="2" rx="3" fill="#6366f1" opacity="0.15"/><text x="47.5" y="218" text-anchor="end" font-size="10" fill="#9ca3af" transform="rotate(-40 47.5 218)">Jun 6</text>
  <rect x="61" y="202" width="19" height="2" rx="3" fill="#6366f1" opacity="0.15"/>
  <rect x="84" y="202" width="19" height="2" rx="3" fill="#6366f1" opacity="0.15"/>
  <rect x="107" y="202" width="19" height="2" rx="3" fill="#6366f1" opacity="0.15"/>
  <rect x="130" y="44" width="19" height="160" rx="3" fill="#6366f1" opacity="1"/><text x="139.5" y="39" text-anchor="middle" font-size="11" fill="#4f46e5" font-weight="600">19</text>
  <rect x="153" y="137" width="19" height="67" rx="3" fill="#6366f1" opacity="1"/><text x="162.5" y="132" text-anchor="middle" font-size="11" fill="#4f46e5" font-weight="600">8</text><text x="162.5" y="218" text-anchor="end" font-size="10" fill="#9ca3af" transform="rotate(-40 162.5 218)">Jun 11</text>
  <rect x="176" y="111" width="19" height="93" rx="3" fill="#6366f1" opacity="1"/><text x="185.5" y="106" text-anchor="middle" font-size="11" fill="#4f46e5" font-weight="600">11</text>
  <rect x="199" y="202" width="19" height="2" rx="3" fill="#6366f1" opacity="0.15"/>
  <rect x="222" y="202" width="19" height="2" rx="3" fill="#6366f1" opacity="0.15"/>
  <rect x="245" y="187" width="19" height="17" rx="3" fill="#6366f1" opacity="1"/>
  <rect x="268" y="153" width="19" height="51" rx="3" fill="#6366f1" opacity="1"/><text x="277.5" y="148" text-anchor="middle" font-size="11" fill="#4f46e5" font-weight="600">6</text><text x="277.5" y="218" text-anchor="end" font-size="10" fill="#9ca3af" transform="rotate(-40 277.5 218)">Jun 16</text>
  <rect x="291" y="128" width="19" height="76" rx="3" fill="#6366f1" opacity="1"/><text x="300.5" y="123" text-anchor="middle" font-size="11" fill="#4f46e5" font-weight="600">9</text>
  <rect x="314" y="162" width="19" height="42" rx="3" fill="#6366f1" opacity="1"/><text x="323.5" y="157" text-anchor="middle" font-size="11" fill="#4f46e5" font-weight="600">5</text>
  <rect x="337" y="120" width="19" height="84" rx="3" fill="#6366f1" opacity="1"/><text x="346.5" y="115" text-anchor="middle" font-size="11" fill="#4f46e5" font-weight="600">10</text>
  <rect x="360" y="202" width="19" height="2" rx="3" fill="#6366f1" opacity="0.15"/>
  <rect x="383" y="196" width="19" height="8" rx="3" fill="#6366f1" opacity="1"/><text x="392.5" y="218" text-anchor="end" font-size="10" fill="#9ca3af" transform="rotate(-40 392.5 218)">Jun 21</text>
  <rect x="406" y="202" width="19" height="2" rx="3" fill="#6366f1" opacity="0.15"/>
  <rect x="429" y="145" width="19" height="59" rx="3" fill="#6366f1" opacity="1"/><text x="438.5" y="140" text-anchor="middle" font-size="11" fill="#4f46e5" font-weight="600">7</text>
  <rect x="452" y="202" width="19" height="2" rx="3" fill="#6366f1" opacity="0.15"/>
  <rect x="475" y="128" width="19" height="76" rx="3" fill="#6366f1" opacity="1"/><text x="484.5" y="123" text-anchor="middle" font-size="11" fill="#4f46e5" font-weight="600">9</text>
  <rect x="498" y="179" width="19" height="25" rx="3" fill="#6366f1" opacity="1"/><text x="507.5" y="174" text-anchor="middle" font-size="11" fill="#4f46e5" font-weight="600">3</text><text x="507.5" y="218" text-anchor="end" font-size="10" fill="#9ca3af" transform="rotate(-40 507.5 218)">Jun 26</text>
  <rect x="521" y="196" width="19" height="8" rx="3" fill="#6366f1" opacity="1"/>
  <rect x="544" y="202" width="19" height="2" rx="3" fill="#6366f1" opacity="0.15"/>
  <rect x="567" y="179" width="19" height="25" rx="3" fill="#6366f1" opacity="1"/><text x="576.5" y="174" text-anchor="middle" font-size="11" fill="#4f46e5" font-weight="600">3</text>
  <rect x="590" y="187" width="19" height="17" rx="3" fill="#6366f1" opacity="1"/>
  <rect x="613" y="187" width="19" height="17" rx="3" fill="#6366f1" opacity="1"/><text x="622.5" y="218" text-anchor="end" font-size="10" fill="#9ca3af" transform="rotate(-40 622.5 218)">Jul 1</text>
  <rect x="636" y="196" width="19" height="8" rx="3" fill="#6366f1" opacity="1"/>
  <rect x="659" y="202" width="19" height="2" rx="3" fill="#6366f1" opacity="0.15"/>
  <rect x="682" y="196" width="19" height="8" rx="3" fill="#6366f1" opacity="1"/>
  <rect x="705" y="202" width="19" height="2" rx="3" fill="#6366f1" opacity="0.15"/><text x="714.5" y="218" text-anchor="end" font-size="10" fill="#9ca3af" transform="rotate(-40 714.5 218)">Jul 5</text>
</svg>